HIERARCHY
ROOT joint_0
{
	OFFSET 0.000000 0.000000 0.000000
	CHANNELS 6 Xposition Yposition Zposition Zrotation Yrotation Xrotation 
	JOINT joint_1
	{
		OFFSET 17.107422 0.519409 105.452026
		CHANNELS 3 Zrotation Yrotation Xrotation
		JOINT joint_2
		{
			OFFSET 6.110352 -1.434082 97.381958
			CHANNELS 3 Zrotation Yrotation Xrotation
			JOINT joint_3
			{
				OFFSET 6.305908 -1.739990 97.255005
				CHANNELS 3 Zrotation Yrotation Xrotation
				JOINT joint_4
				{
					OFFSET 22.074707 -0.492493 131.077026
					CHANNELS 3 Zrotation Yrotation Xrotation
					JOINT joint_5
					{
						OFFSET 34.162842 2.248718 78.700928
						CHANNELS 3 Zrotation Yrotation Xrotation
						End Site
						{
							OFFSET 0.000000 0.000000 0.000000
						}
					}
				}
				JOINT joint_6
				{
					OFFSET 17.059082 -28.836914 72.664062
					CHANNELS 3 Zrotation Yrotation Xrotation
					JOINT joint_7
					{
						OFFSET 22.639893 -134.803833 -24.691040
						CHANNELS 3 Zrotation Yrotation Xrotation
						JOINT joint_8
						{
							OFFSET 7.301758 -32.590759 -269.966064
							CHANNELS 3 Zrotation Yrotation Xrotation
							JOINT joint_9
							{
								OFFSET 35.581055 -8.517151 -242.326965
								CHANNELS 3 Zrotation Yrotation Xrotation
								End Site
								{
									OFFSET 0.000000 0.000000 0.000000
								}
							}
						}
					}
				}
				JOINT joint_10
				{
					OFFSET 7.819092 28.232056 74.432983
					CHANNELS 3 Zrotation Yrotation Xrotation
					JOINT joint_11
					{
						OFFSET -23.457031 135.063843 -22.406982
						CHANNELS 3 Zrotation Yrotation Xrotation
						JOINT joint_12
						{
							OFFSET 17.896973 48.138672 -267.131958
							CHANNELS 3 Zrotation Yrotation Xrotation
							JOINT joint_13
							{
								OFFSET 46.526367 17.567627 -239.975037
								CHANNELS 3 Zrotation Yrotation Xrotation
								End Site
								{
									OFFSET 0.000000 0.000000 0.000000
								}
							}
						}
					}
				}
			}
		}
	}
	JOINT joint_14
	{
		OFFSET 10.553467 -100.140320 -126.306030
		CHANNELS 3 Zrotation Yrotation Xrotation
		JOINT joint_15
		{
			OFFSET -52.094238 -9.565002 -436.052002
			CHANNELS 3 Zrotation Yrotation Xrotation
			JOINT joint_16
			{
				OFFSET -55.682617 -11.310120 -462.482971
				CHANNELS 3 Zrotation Yrotation Xrotation
				JOINT joint_17
				{
					OFFSET 179.119385 -5.942566 -84.087004
					CHANNELS 3 Zrotation Yrotation Xrotation
					End Site
					{
						OFFSET 0.000000 0.000000 0.000000
					}
				}
			}
		}
	}
	JOINT joint_18
	{
		OFFSET -22.235352 101.620483 -123.583984
		CHANNELS 3 Zrotation Yrotation Xrotation
		JOINT joint_19
		{
			OFFSET -38.118408 12.306396 -437.429016
			CHANNELS 3 Zrotation Yrotation Xrotation
			JOINT joint_20
			{
				OFFSET -51.789307 8.010498 -463.006004
				CHANNELS 3 Zrotation Yrotation Xrotation
				JOINT joint_21
				{
					OFFSET 170.088135 59.632324 -83.078003
					CHANNELS 3 Zrotation Yrotation Xrotation
					End Site
					{
						OFFSET 0.000000 0.000000 0.000000
					}
				}
			}
		}
	}
}
MOTION
Frames: 15
Frame Time: 0.016667
-3251.426025 886.633667 1128.098999 -5.400655 -3.470059 -0.061201 -0.532994 0.570055 -1.101470 -0.622653 -0.183899 0.153262 -0.590407 0.263281 -0.223863 0.001253 -4.043563 0.330474 0.000000 0.000000 0.000000 -2.773327 0.928841 0.322081 0.069338 0.117250 -1.393173 0.584567 -3.284595 2.695627 0.000000 0.000000 0.000000 1.256141 2.169855 0.459343 0.965899 1.831476 -1.211825 0.453225 -2.704838 3.312184 0.000000 0.000000 0.000000 1.596589 -0.825807 -1.526957 1.471888 -0.253904 -0.639958 1.221767 3.494376 0.685309 0.000000 0.000000 0.000000 0.184666 0.051418 1.140503 0.299873 0.432163 -0.084392 0.416092 2.761563 -0.766199 0.000000 0.000000 0.000000 
-3249.357178 886.676208 1128.416992 -5.302792 -3.085402 -0.092091 -0.561001 0.543066 -1.097089 -0.653051 -0.178338 0.189375 -0.615800 0.280438 -0.263288 0.023552 -4.711176 0.348683 0.000000 0.000000 0.000000 -2.714876 1.023023 0.436437 0.067492 0.186983 -1.490092 0.538019 -2.861390 2.560621 0.000000 0.000000 0.000000 1.020762 2.299856 0.378115 0.994061 2.029788 -1.153995 0.436603 -2.696526 3.222726 0.000000 0.000000 0.000000 1.547412 -1.158660 -1.562288 1.395134 -0.238960 -0.518289 1.159010 3.655541 0.661569 0.000000 0.000000 0.000000 0.163949 -0.363218 1.144348 0.292609 0.582849 -0.065707 0.409063 2.773132 -0.773654 0.000000 0.000000 0.000000 
-3246.981934 886.848267 1128.740967 -5.196818 -2.721423 -0.132311 -0.586077 0.549944 -1.068078 -0.677560 -0.168788 0.199980 -0.638606 0.285249 -0.281039 0.037007 -5.337192 0.386710 0.000000 0.000000 0.000000 -2.607320 1.313648 0.317377 -0.026444 0.562849 -1.314708 0.572886 -3.640501 2.494777 0.000000 0.000000 0.000000 0.763527 2.521015 0.316232 1.078330 2.296264 -1.284680 0.447162 -2.930905 3.353352 0.000000 0.000000 0.000000 1.502045 -1.453943 -1.592530 1.324982 -0.210790 -0.408669 1.102240 3.785867 0.639592 0.000000 0.000000 0.000000 0.154394 -0.750839 1.150053 0.297189 0.756511 -0.054676 0.411049 2.767341 -0.770643 0.000000 0.000000 0.000000 
-3244.338135 887.224609 1129.113037 -5.074206 -2.430986 -0.185555 -0.596984 0.642209 -1.004447 -0.683474 -0.158996 0.160133 -0.649164 0.273746 -0.254826 0.027764 -5.836955 0.463361 0.000000 0.000000 0.000000 -2.410485 2.022630 -0.099342 -0.254299 1.506582 -0.757650 0.788768 -6.643171 2.594640 0.000000 0.000000 0.000000 0.471109 2.851132 0.253732 1.259328 2.633270 -1.763418 0.548061 -3.463550 4.031729 0.000000 0.000000 0.000000 1.469649 -1.644100 -1.611633 1.276138 -0.173593 -0.335876 1.063776 3.836280 0.623501 0.000000 0.000000 0.000000 0.164445 -1.043127 1.175645 0.324913 0.934738 -0.090735 0.427864 2.725440 -0.747744 0.000000 0.000000 0.000000 
-3241.438477 887.768616 1129.525024 -4.934445 -2.185609 -0.250001 -0.598665 0.794818 -0.917681 -0.677873 -0.142778 0.095288 -0.651761 0.247265 -0.204368 0.006473 -6.268152 0.556214 0.000000 0.000000 0.000000 -2.143935 3.079438 -0.554516 -0.509725 2.833978 -0.059753 1.169255 -11.214022 2.696041 0.000000 0.000000 0.000000 0.117169 3.243766 0.135215 1.514292 3.024296 -2.472972 0.734993 -4.142267 5.172439 0.000000 0.000000 0.000000 1.446397 -1.770855 -1.623038 1.241462 -0.117153 -0.286601 1.037835 3.836537 0.611592 0.000000 0.000000 0.000000 0.191401 -1.284105 1.212317 0.372474 1.135686 -0.156232 0.458645 2.660637 -0.710007 0.000000 0.000000 0.000000 
-3238.018799 888.425171 1129.857056 -4.818707 -1.964706 -0.322301 -0.604595 0.957772 -0.772422 -0.672066 -0.144776 0.013082 -0.655723 0.228457 -0.141316 -0.009786 -6.593670 0.610552 0.000000 0.000000 0.000000 -2.017494 4.324722 -1.408088 -0.696703 4.399457 0.906897 1.773928 -17.523515 2.816338 0.000000 0.000000 0.000000 -0.029350 3.909742 0.185809 1.850238 3.621307 -3.273823 0.750207 -5.908234 5.842435 0.000000 0.000000 0.000000 1.424181 -1.817777 -1.627200 1.213693 -0.099826 -0.254721 1.017140 3.775477 0.600101 0.000000 0.000000 0.000000 0.217108 -1.444521 1.245734 0.414414 1.304704 -0.206755 0.484449 2.561702 -0.662695 0.000000 0.000000 0.000000 
-3233.931885 889.171814 1130.050049 -4.759324 -1.765888 -0.410134 -0.634359 1.088515 -0.511520 -0.681751 -0.185470 -0.083348 -0.675386 0.240661 -0.074291 0.002131 -6.774246 0.554325 0.000000 0.000000 0.000000 -2.197536 5.750678 -2.710985 -0.715593 6.099878 2.009070 2.697434 -26.193963 2.937767 0.000000 0.000000 0.000000 0.255544 5.009789 0.427152 2.255907 4.596846 -3.828224 0.348217 -9.484036 5.053587 0.000000 0.000000 0.000000 1.393597 -1.747402 -1.615913 1.186210 -0.195834 -0.234219 0.993962 3.666820 0.585861 0.000000 0.000000 0.000000 0.226713 -1.476415 1.282334 0.431172 1.368786 -0.218761 0.491618 2.446241 -0.618632 0.000000 0.000000 0.000000 
-3229.279785 890.028687 1130.151001 -4.740714 -1.595590 -0.515275 -0.682302 1.203609 -0.149262 -0.702982 -0.256330 -0.187130 -0.706613 0.279808 -0.006766 0.038670 -6.829444 0.398539 0.000000 0.000000 0.000000 -2.692663 7.421261 -3.972323 -0.500049 7.770373 2.811898 3.866404 -36.859743 2.901833 0.000000 0.000000 0.000000 0.882583 6.423259 0.611321 2.709927 5.904423 -3.949670 -0.359217 -14.412572 3.093040 0.000000 0.000000 0.000000 1.357636 -1.568036 -1.588847 1.161515 -0.383023 -0.227264 0.970670 3.519905 0.570279 0.000000 0.000000 0.000000 0.227225 -1.392747 1.327503 0.432509 1.348478 -0.208489 0.487691 2.321771 -0.576796 0.000000 0.000000 0.000000 
-3223.925049 890.937866 1130.062988 -4.742080 -1.403743 -0.590667 -0.707762 1.331232 0.148811 -0.708464 -0.322276 -0.257926 -0.719295 0.319158 0.041307 0.063445 -6.839126 0.249377 0.000000 0.000000 0.000000 -3.339144 9.181682 -5.378751 -0.144752 9.299381 3.385333 4.975762 -48.009459 2.769525 0.000000 0.000000 0.000000 1.696896 8.060794 0.930976 3.186425 7.319047 -4.169589 -1.081597 -20.214232 1.414584 0.000000 0.000000 0.000000 1.338358 -1.398106 -1.588998 1.151156 -0.500613 -0.245111 0.963512 3.234240 0.557642 0.000000 0.000000 0.000000 0.233104 -1.319908 1.309739 0.432989 1.406734 -0.159480 0.478914 2.074639 -0.494273 0.000000 0.000000 0.000000 
-3217.716064 891.913147 1129.693970 -4.754948 -1.156768 -0.584861 -0.691509 1.448794 0.249471 -0.687960 -0.342547 -0.268595 -0.701412 0.325023 0.055476 0.047887 -6.838465 0.177738 0.000000 0.000000 0.000000 -4.015757 11.110322 -7.190245 0.201032 10.808165 3.873239 5.841413 -59.510385 2.531910 0.000000 0.000000 0.000000 2.648800 9.987709 1.487127 3.583877 8.748492 -4.861674 -1.729623 -26.858192 0.969648 0.000000 0.000000 0.000000 1.357013 -1.320586 -1.668343 1.166707 -0.420950 -0.301267 0.987916 2.705369 0.551713 0.000000 0.000000 0.000000 0.260469 -1.341569 1.138455 0.442934 1.662750 -0.032317 0.472030 1.616123 -0.336654 0.000000 0.000000 0.000000 
-3210.707275 892.980469 1129.082031 -4.787049 -0.873612 -0.516342 -0.651283 1.544795 0.216957 -0.653664 -0.333204 -0.239007 -0.666598 0.309360 0.041080 0.001410 -6.792964 0.156822 0.000000 0.000000 0.000000 -4.875459 13.273741 -9.184160 0.412376 12.120387 4.017942 6.492344 -71.735791 2.212078 0.000000 0.000000 0.000000 3.844867 12.246910 2.005080 3.735369 10.223724 -5.534862 -2.474436 -34.443464 1.217714 0.000000 0.000000 0.000000 1.404562 -1.291335 -1.810867 1.202838 -0.204488 -0.390476 1.036681 1.979919 0.550641 0.000000 0.000000 0.000000 0.304979 -1.409835 0.840421 0.457490 2.053921 0.167615 0.465616 0.999199 -0.123262 0.000000 0.000000 0.000000 
-3203.153076 893.894104 1128.342041 -4.815512 -0.554843 -0.481123 -0.551879 1.801254 0.174868 -0.565434 -0.370132 -0.195084 -0.577719 0.348722 0.022340 -0.069687 -6.789146 0.198444 0.000000 0.000000 0.000000 -5.907342 15.281528 -11.038159 0.087863 12.825673 3.538117 6.867224 -83.134840 2.440882 0.000000 0.000000 0.000000 5.002798 14.628248 2.487885 3.594297 11.518373 -5.944037 -3.283024 -42.535904 1.987204 0.000000 0.000000 0.000000 1.445153 -1.289803 -1.900215 1.238714 0.050023 -0.493397 1.084896 1.240418 0.548811 0.000000 0.000000 0.000000 0.336271 -1.522203 0.616874 0.472845 2.523169 0.312719 0.447749 0.303779 0.111992 0.000000 0.000000 0.000000 
-3195.271240 894.552795 1127.530029 -4.839501 -0.202233 -0.544098 -0.363716 2.428970 0.209387 -0.392475 -0.520059 -0.162124 -0.410048 0.500321 0.020125 -0.175417 -6.928716 0.345457 0.000000 0.000000 0.000000 -7.036828 16.853033 -12.672840 -1.203775 12.828248 2.241736 -173.079359 -86.701905 -176.331788 0.000000 0.000000 0.000000 5.942581 17.091861 3.017248 3.252366 12.474099 -6.156007 -4.089233 -51.168692 3.366822 0.000000 0.000000 0.000000 1.461830 -1.286531 -1.849638 1.272802 0.240452 -0.620695 1.123613 0.628045 0.546713 0.000000 0.000000 0.000000 0.331324 -1.699274 0.604825 0.486861 3.076566 0.309833 0.407593 -0.445425 0.355136 0.000000 0.000000 0.000000 
-3186.968262 895.051208 1126.603027 -4.869406 0.179789 -0.669007 -0.092186 3.368425 0.278028 -0.143400 -0.747465 -0.138608 -0.179701 0.709129 0.034157 -0.318693 -7.169178 0.613213 0.000000 0.000000 0.000000 -8.292089 18.011819 -14.182310 -3.760732 12.280071 0.133861 -173.322385 -77.014316 -174.447846 0.000000 0.000000 0.000000 6.810993 19.786122 3.450982 2.803981 13.035798 -6.064377 -4.916425 -60.432927 5.397428 0.000000 0.000000 0.000000 1.468441 -1.282390 -1.703093 1.313819 0.399976 -0.780566 1.162639 0.079977 0.546839 0.000000 0.000000 0.000000 0.301730 -1.935585 0.728297 0.500767 3.733084 0.206674 0.349398 -1.269749 0.615744 0.000000 0.000000 0.000000 
-3178.010254 895.112854 1125.650024 -4.853646 0.587877 -0.839473 0.252630 4.240304 0.357286 0.178712 -0.940046 -0.114240 0.111252 0.866691 0.061705 -0.442057 -7.320326 0.914017 0.000000 0.000000 0.000000 -9.523462 18.624729 -15.456617 -7.036243 11.523944 -1.937530 -173.691765 -68.944970 -172.507195 0.000000 0.000000 0.000000 7.422149 22.390283 3.528173 2.640835 13.196750 -4.976647 -5.648971 -69.305897 7.332705 0.000000 0.000000 0.000000 1.443486 -1.347164 -1.514961 1.314502 0.712582 -0.862956 1.177093 -0.513696 0.533915 0.000000 0.000000 0.000000 0.258852 -2.120306 0.956952 0.511896 4.299680 0.046081 0.286075 -2.059486 0.861681 0.000000 0.000000 0.000000 
